<svg xmlns="http://www.w3.org/2000/svg" version="1.1" xmlns:xlink="http://www.w3.org/1999/xlink" xmlns:svgjs="http://svgjs.dev/svgjs" viewBox="0 0 800 800"><defs><radialGradient id="ccclaymoji-grad-dark" r="93%" cx="20%" cy="20%">
      <stop offset="70%" stop-color="#798a65" stop-opacity="0"></stop>
      <stop offset="97%" stop-color="#4d5d3a" stop-opacity="1"></stop>
    </radialGradient><radialGradient id="ccclaymoji-grad-light" r="65%" cx="28%" cy="20%">
    <stop offset="0%" stop-color="#a8ba93" stop-opacity="0.75"></stop>
    <stop offset="100%" stop-color="#798a65" stop-opacity="0"></stop>
  </radialGradient><filter id="inner-blur" x="-100%" y="-100%" width="400%" height="400%" filterUnits="objectBoundingBox" primitiveUnits="userSpaceOnUse" color-interpolation-filters="sRGB">
	<feGaussianBlur stdDeviation="2" x="0%" y="0%" width="100%" height="100%" in="SourceGraphic" edgeMode="none" result="blur"></feGaussianBlur></filter><filter id="eye-shadow" x="-100%" y="-100%" width="400%" height="400%" filterUnits="objectBoundingBox" primitiveUnits="userSpaceOnUse" color-interpolation-filters="sRGB">
	<feDropShadow stdDeviation="10" dx="10" dy="10" flood-color="#000000" flood-opacity="0.2" x="0%" y="0%" width="100%" height="100%" result="dropShadow"></feDropShadow>
</filter><linearGradient gradientTransform="rotate(-25)" id="eye-light" x1="50%" y1="0%" x2="50%" y2="100%">
      <stop offset="20%" stop-color="#555555" stop-opacity="1"></stop>
      <stop offset="100%" stop-color="black" stop-opacity="0"></stop>
    </linearGradient><linearGradient id="mouth-light" x1="50%" y1="0%" x2="50%" y2="100%">
    <stop offset="0%" stop-color="#555555" stop-opacity="1"></stop>
    <stop offset="100%" stop-color="hsla(0, 0%, 0%, 1.00)" stop-opacity="0"></stop>
  </linearGradient><filter id="mouth-shadow" x="-100%" y="-100%" width="400%" height="400%" filterUnits="objectBoundingBox" primitiveUnits="userSpaceOnUse" color-interpolation-filters="sRGB">
	<feDropShadow stdDeviation="10" dx="10" dy="10" flood-color="#000000" flood-opacity="0.2" x="0%" y="0%" width="100%" height="100%" result="dropShadow"></feDropShadow>
</filter></defs><g stroke-linecap="round"><path d="M638.5 399.99999334873297C638.5 554.2367882205278 554.2367948717949 624.9102497589894 400 624.9102497589894C245.7638846153846 624.9102497589894 161.5 554.2367882205278 161.5 399.99999334873297C161.5 245.76387796411757 245.7638846153846 175.08973693847656 400 175.08973693847656C554.2367948717949 175.08973693847656 638.5 245.76387796411757 638.5 399.99999334873297Z " fill="#798a65"></path><path d="M638.5 399.99999334873297C638.5 554.2367882205278 554.2367948717949 624.9102497589894 400 624.9102497589894C245.7638846153846 624.9102497589894 161.5 554.2367882205278 161.5 399.99999334873297C161.5 245.76387796411757 245.7638846153846 175.08973693847656 400 175.08973693847656C554.2367948717949 175.08973693847656 638.5 245.76387796411757 638.5 399.99999334873297Z " fill="url(#ccclaymoji-grad-dark)"></path><path d="M638.5 399.99999334873297C638.5 554.2367882205278 554.2367948717949 624.9102497589894 400 624.9102497589894C245.7638846153846 624.9102497589894 161.5 554.2367882205278 161.5 399.99999334873297C161.5 245.76387796411757 245.7638846153846 175.08973693847656 400 175.08973693847656C554.2367948717949 175.08973693847656 638.5 245.76387796411757 638.5 399.99999334873297Z " fill="url(#ccclaymoji-grad-light)"></path><ellipse rx="23.5" ry="25" cx="350" cy="375" fill="black" filter="url(#eye-shadow)"></ellipse><ellipse rx="23.5" ry="25" cx="350" cy="375" fill="url(#eye-light)" filter="url(#inner-blur)"></ellipse><ellipse rx="23.5" ry="25" cx="450" cy="375" fill="black" filter="url(#eye-shadow)"></ellipse><ellipse rx="23.5" ry="25" cx="450" cy="375" fill="url(#eye-light)" filter="url(#inner-blur)"></ellipse><path d="M354.5 465.5Q399.5 499.5 443.5 465.5 " stroke-width="7" stroke="hsla(0, 0%, 0%, 1.00)" fill="none" filter="url(#mouth-shadow)" transform="rotate(5, 400, 400)"></path><path d="M354.5 465.5Q399.5 499.5 443.5 465.5 " stroke-width="2.3333333333333335" stroke="url(#mouth-light)" fill="none" filter="url(#inner-blur)" transform="rotate(5, 400, 400)"></path></g></svg>