<svg width="22" height="22" viewBox="0 0 22 22" fill="none" xmlns="http://www.w3.org/2000/svg">
<path d="M17.9014 12.6673C18.0798 12.6673 18.2342 12.7325 18.3645 12.8629C18.4949 12.9933 18.56 13.1477 18.56 13.3261C18.56 13.5045 18.4949 13.6589 18.3645 13.7893C18.2342 13.9196 18.0798 13.9848 17.9014 13.9848C17.723 13.9848 17.5687 13.9196 17.4383 13.7893C17.308 13.6589 17.2428 13.5045 17.2428 13.3261C17.2428 13.1477 17.308 12.9933 17.4383 12.8629C17.5687 12.7325 17.723 12.6673 17.9014 12.6673ZM11.696 12.4718C11.154 12.1012 10.5709 11.8233 9.94657 11.638C9.32225 11.4528 8.68079 11.3567 8.02217 11.3498C7.41844 11.3498 6.83529 11.4287 6.27272 11.5866C5.71015 11.7444 5.18532 11.964 4.69822 12.2453C4.21112 12.5267 3.76861 12.8698 3.37069 13.2746C2.97278 13.6795 2.62975 14.1255 2.3416 14.6127C2.05346 15.0999 1.83049 15.6248 1.6727 16.1875C1.5149 16.7502 1.43601 17.3335 1.43601 17.9373H0.118774C0.118774 17.1345 0.238835 16.3488 0.478955 15.5802C0.719076 14.8117 1.06554 14.1015 1.51833 13.4496C1.97113 12.7977 2.50969 12.2179 3.134 11.7101C3.75832 11.2023 4.45467 10.8146 5.22305 10.547C4.83886 10.2999 4.49583 10.0152 4.19396 9.69265C3.8921 9.37014 3.6314 9.01675 3.41186 8.63248C3.19232 8.24821 3.03109 7.84335 2.92819 7.41791C2.82528 6.99246 2.76696 6.54643 2.75324 6.07982C2.75324 5.35245 2.89045 4.66968 3.16488 4.03152C3.4393 3.39335 3.8132 2.8341 4.28658 2.35376C4.75996 1.87342 5.3191 1.49601 5.964 1.22153C6.60889 0.947054 7.29495 0.809814 8.02217 0.809814C8.74939 0.809814 9.43202 0.947054 10.0701 1.22153C10.7081 1.49601 11.2672 1.86999 11.7475 2.34347C12.2277 2.81695 12.605 3.3762 12.8795 4.02122C13.1539 4.66625 13.2911 5.35245 13.2911 6.07982C13.2911 6.53957 13.2362 6.98217 13.1264 7.40761C13.0167 7.83306 12.852 8.24134 12.6325 8.63248C12.4129 9.02361 12.1557 9.377 11.8607 9.69265C11.5657 10.0083 11.2192 10.2931 10.8213 10.547C11.377 10.746 11.9121 11.0204 12.4267 11.3704L11.696 12.4718ZM4.07047 6.07982C4.07047 6.62878 4.17338 7.14 4.3792 7.61347C4.58502 8.08695 4.8663 8.50553 5.22305 8.86922C5.5798 9.2329 5.9983 9.51767 6.47854 9.72353C6.95878 9.92939 7.47333 10.0323 8.02217 10.0323C8.56416 10.0323 9.07527 9.92939 9.55551 9.72353C10.0358 9.51767 10.4543 9.23633 10.811 8.87951C11.1678 8.52269 11.4525 8.1041 11.6651 7.62377C11.8778 7.14343 11.9807 6.62878 11.9739 6.07982C11.9739 5.53772 11.871 5.0265 11.6651 4.54617C11.4593 4.06583 11.178 3.64725 10.8213 3.29042C10.4645 2.9336 10.0426 2.64883 9.55551 2.4361C9.06841 2.22338 8.5573 2.12045 8.02217 2.12732C7.47333 2.12732 6.96221 2.23025 6.48883 2.4361C6.01545 2.64196 5.59695 2.92331 5.23334 3.28013C4.86973 3.63695 4.58502 4.05896 4.3792 4.54617C4.17338 5.03337 4.07047 5.54458 4.07047 6.07982ZM17.2428 10.0323C17.7848 10.0323 18.2959 10.1353 18.7761 10.3411C19.2564 10.547 19.6749 10.8283 20.0316 11.1851C20.3884 11.542 20.6731 11.964 20.8858 12.4512C21.0985 12.9384 21.2014 13.4496 21.1945 13.9848C21.1945 14.5338 21.0916 15.045 20.8858 15.5185C20.68 15.992 20.3987 16.4105 20.0419 16.7742C19.6852 17.1379 19.2632 17.4227 18.7761 17.6285C18.289 17.8344 17.7779 17.9373 17.2428 17.9373C16.7969 17.9373 16.3578 17.8584 15.9256 17.7006V19.2548H14.6083V20.5723H13.2911V21.8898H9.33941V18.9872L13.4043 14.9112C13.3288 14.5955 13.2911 14.2868 13.2911 13.9848C13.2911 13.4427 13.394 12.9315 13.5998 12.4512C13.8056 11.9708 14.0869 11.5523 14.4437 11.1954C14.8004 10.8386 15.2189 10.5538 15.6992 10.3411C16.1794 10.1284 16.694 10.0255 17.2428 10.0323ZM17.2428 16.6198C17.6064 16.6198 17.946 16.5512 18.2616 16.414C18.5772 16.2767 18.8585 16.088 19.1055 15.8479C19.3524 15.6077 19.5411 15.3298 19.6715 15.0141C19.8018 14.6985 19.8704 14.3554 19.8773 13.9848C19.8773 13.6211 19.8087 13.2815 19.6715 12.9658C19.5342 12.6502 19.3456 12.3688 19.1055 12.1218C18.8653 11.8748 18.5875 11.6861 18.2719 11.5557C17.9563 11.4253 17.6133 11.3567 17.2428 11.3498C16.8792 11.3498 16.5396 11.4184 16.224 11.5557C15.9084 11.6929 15.6271 11.8816 15.3802 12.1218C15.1332 12.362 14.9445 12.6399 14.8142 12.9555C14.6838 13.2712 14.6152 13.6143 14.6083 13.9848C14.6083 14.225 14.6392 14.4446 14.701 14.6436C14.7627 14.8426 14.8347 15.0519 14.9171 15.2714L10.6566 19.5224V20.5723H11.9739V19.2548H13.2911V17.9373H14.6083V17.0007L15.5654 16.0537C15.8398 16.2115 16.1039 16.3453 16.3578 16.4551C16.6116 16.5649 16.9066 16.6198 17.2428 16.6198Z" fill="white"/>
</svg>
