<svg width="210" height="210" viewBox="0 0 210 210" fill="none" xmlns="http://www.w3.org/2000/svg">
<path fill-rule="evenodd" clip-rule="evenodd" d="M88.0069 12.8506C106.413 12.0433 116.206 17.9847 125.181 24.3095C113.789 37.2308 112.549 54.7278 117.214 67.8726C127.519 96.9064 165.54 107.67 189.575 84.7347C196.4 78.2204 200.106 69.8341 201.702 64.0981C205.485 74.8175 205.728 86.5101 202.331 97.4323C200.733 102.747 198.452 107.13 196.18 111.493C193.742 116.179 191.314 120.843 189.758 126.614C187.878 133.58 189.336 139.733 190.869 146.2C193.037 155.346 195.353 165.118 188.588 178.701C182.742 190.439 168.286 195.798 155.263 196.136C142.893 196.457 130.438 189.91 120.95 184.923C117.645 183.185 114.701 181.638 112.244 180.635C100.849 175.984 93.2992 182.174 85.2037 188.812L85.2031 188.813L85.2025 188.813L85.2008 188.815L85.1998 188.815L85.1993 188.816L85.1984 188.816L85.198 188.817C84.0233 189.781 82.8368 190.754 81.6257 191.703C74.9505 196.941 38.341 217.077 14.6815 178.383C9.19668 169.423 -0.149211 145.921 10.8484 122.786C16.0937 111.753 22.4697 106.325 28.1402 101.497C34.7636 95.8588 40.4248 91.0397 42.1984 79.0633C42.8777 74.4753 42.6967 69.8268 42.5125 65.0948C42.1468 55.7018 41.7685 45.98 48.0795 35.7501C52.3428 28.948 58.2156 23.3006 65.1793 19.3068C72.1429 15.313 79.9829 13.0956 88.0069 12.8506ZM68.4551 84.2914C70.1856 83.4594 72.9118 82.1488 73.6485 81.844C73.7302 81.8188 73.8179 81.8209 73.8984 81.8498C73.9788 81.8788 74.0478 81.9331 74.0947 82.0045C74.1416 82.076 74.1641 82.1608 74.1587 82.2461C74.1533 82.3314 74.1203 82.4127 74.0647 82.4777C73.6153 82.9276 68.8077 85.6054 68.0745 86.01C68.2519 86.236 68.8098 86.6239 69.4417 87.0632C69.9759 87.4347 70.5631 87.843 71.018 88.2213C72.2152 89.2131 72.2282 89.3676 72.2535 89.6674C72.2556 89.6922 72.2578 89.7181 72.2607 89.7455C72.2654 89.7835 72.2618 89.8221 72.2502 89.8585C72.2384 89.895 72.2189 89.9285 72.193 89.9567C72.1672 89.9848 72.1354 90.007 72.1 90.0217C72.0646 90.0363 72.0265 90.0431 71.9883 90.0416C71.859 90.0355 71.7314 90.0089 71.6104 89.9628C70.6882 89.421 69.8286 88.8168 69.1036 88.3072C68.1791 87.6574 67.4735 87.1614 67.1367 87.1453C66.9156 88.8514 66.7834 90.5679 66.7403 92.2877C66.699 92.9483 66.661 93.3619 66.4096 93.5439C66.3012 93.6345 66.1671 93.6886 66.0263 93.6985C65.5541 93.6982 65.5252 93.0386 65.5141 92.5685C65.4755 90.9362 65.7027 87.9965 65.7651 87.2291C65.6069 87.2981 65.3524 87.4246 64.9335 87.6473C63.3845 88.4655 62.5189 88.969 62.0065 89.2671L62.0059 89.2674C61.2828 89.6881 61.2635 89.6994 61.0184 89.6085C60.9372 89.5814 60.8658 89.5308 60.813 89.4635C60.7602 89.396 60.7283 89.3146 60.7214 89.2293C60.6541 88.4107 62.9472 87.192 64.5335 86.349C64.8076 86.2033 65.061 86.0685 65.2771 85.9493L64.5121 85.4126C60.9279 82.898 60.4439 82.5585 60.4627 82.2497C60.4657 82.2015 60.4809 82.1541 60.4985 82.0993L60.5004 82.093C60.8502 80.9976 62.7858 82.4494 64.3667 83.635C65.0199 84.1249 65.6126 84.5695 66.0077 84.7699C66.0016 84.4066 66.0495 83.3723 66.3334 80.2462C66.4793 78.6387 66.4623 77.4049 66.4498 76.4935C66.4299 75.0438 66.4211 74.4096 67.0968 74.3837C67.2476 74.396 67.3911 74.4543 67.5077 74.5508C67.6244 74.6474 67.7084 74.7774 67.7486 74.9234C67.782 78.2324 67.6398 81.5408 67.3226 84.8348C67.583 84.7106 67.9747 84.5223 68.4394 84.2989L68.4468 84.2954L68.4532 84.2922L68.4551 84.2914ZM180.107 117.725C180.166 117.66 180.202 117.578 180.21 117.49C180.217 117.402 180.195 117.315 180.147 117.24C180.1 117.166 180.029 117.111 179.945 117.081C179.862 117.052 179.772 117.052 179.688 117.079C178.855 117.423 175.498 119.041 173.891 119.815L173.889 119.816L173.363 120.07C173.68 116.775 173.822 113.467 173.789 110.157C173.748 110.012 173.663 109.882 173.547 109.785C173.431 109.689 173.287 109.631 173.137 109.619C172.461 109.644 172.47 110.279 172.491 111.726C172.503 112.638 172.521 113.872 172.374 115.481C172.09 118.605 172.044 119.64 172.05 120.004C171.654 119.805 171.06 119.358 170.405 118.867C168.826 117.681 166.892 116.23 166.541 117.328L166.538 117.336C166.521 117.391 166.506 117.438 166.504 117.486C166.483 117.795 166.97 118.135 170.605 120.683L171.318 121.183C171.121 121.292 170.889 121.414 170.634 121.549C169.068 122.379 166.694 123.638 166.762 124.464C166.779 124.554 166.82 124.639 166.88 124.708C166.94 124.777 167.019 124.829 167.105 124.858C167.192 124.888 167.286 124.893 167.376 124.873C167.466 124.854 167.548 124.811 167.616 124.75C167.879 124.54 171.387 122.644 171.911 122.394C171.907 122.444 171.901 122.505 171.895 122.573L171.894 122.58C171.772 123.928 171.366 128.42 172.347 128.421C172.628 128.421 172.64 128.251 172.73 127.019L172.73 127.018L172.73 127.017L172.731 127.017C172.781 126.332 172.855 125.322 173.012 123.832C173.06 123.385 173.105 122.332 173.105 122.332C173.293 122.425 173.486 122.554 173.776 122.746C174.159 123 174.708 123.364 175.629 123.904C175.813 123.972 176.079 124.042 176.212 123.898C176.294 123.81 176.286 123.734 176.277 123.649C176.275 123.634 176.273 123.618 176.272 123.602C176.246 123.247 176.134 123.071 175.036 122.161C174.678 121.864 174.422 121.668 174.206 121.503C174.124 121.44 174.046 121.38 173.972 121.322C174.446 121.083 179.646 118.186 180.107 117.725ZM91.4267 31.913C91.4455 31.9506 91.4567 31.9917 91.4594 32.0336C91.4746 32.6817 86.1154 38.0676 83.8274 40.0646C84.1124 40.4118 85.874 42.0108 87.4108 43.4055L87.419 43.4129C87.6783 43.6483 87.9312 43.8778 88.1694 44.0944C89.7126 45.4964 89.6822 45.6241 89.6402 45.7989C89.6263 45.8478 89.6006 45.8925 89.5653 45.929C89.5301 45.9655 89.4863 45.9927 89.4379 46.0081C88.8547 46.1721 84.2381 42.4865 82.8456 41.0825C82.6112 42.1081 82.2462 45.9653 82.0006 48.5616C81.8698 49.9432 81.7729 50.9681 81.7474 51.0187C81.7295 51.0549 81.7035 51.0864 81.6712 51.1109C81.6391 51.1352 81.6017 51.1518 81.562 51.1593C81.5222 51.1669 81.4814 51.165 81.4424 51.1539C81.4036 51.1429 81.3678 51.123 81.338 51.0957C80.5292 50.3621 80.941 46.6256 81.2351 43.9582L81.2354 43.9555C81.3169 43.2149 81.3895 42.557 81.4242 42.0688C81.2089 42.2306 80.8965 42.487 80.3292 42.9526C80.049 43.1825 79.7065 43.4636 79.2829 43.8094C78.427 44.5117 78.3787 44.6143 78.2584 44.8705C78.2325 44.9256 78.2031 44.988 78.1617 45.0649C77.7025 45.943 76.6132 45.0597 77.1155 44.0257C77.4225 43.3948 77.5857 43.2614 79.8908 41.3775C80.2858 41.0548 80.7436 40.6806 81.2758 40.2438C81.4067 40.1361 81.5324 40.0325 81.6068 39.9635C81.497 39.8681 75.9874 34.6554 75.9519 34.5067C75.8277 34.0418 75.989 33.8513 76.142 33.774C77.0605 33.3056 81.2223 37.5396 81.9137 38.3002C81.9232 38.1954 81.9317 38.0676 81.9391 37.9483C81.965 37.5323 82.0552 36.7145 82.1783 35.5977L82.1786 35.595C82.3025 34.4719 82.4596 33.0467 82.6182 31.4241L82.6185 31.4214C82.8492 29.0738 82.8631 28.9324 83.3602 28.8543C84.1921 28.718 83.8433 31.9372 83.4271 35.7786C83.3214 36.7537 83.2114 37.7689 83.1153 38.7794C86.8007 35.7132 88.6875 33.8439 89.7371 32.8038C90.8005 31.7502 91.0047 31.5479 91.3496 31.8147C91.3816 31.842 91.4079 31.8754 91.4267 31.913ZM132.862 126.418C131.713 127.038 131.652 127.064 131.445 127.151C131.299 127.213 131.08 127.306 130.358 127.658C129.921 127.871 129.352 128.163 128.845 128.421C128.278 128.712 127.789 128.962 127.654 129.017C127.687 128.458 127.873 124.958 127.784 124.648C127.842 124.412 127.876 124.17 127.882 123.926C127.886 123.756 127.824 123.591 127.71 123.465C127.596 123.339 127.438 123.262 127.268 123.248C126.51 123.198 126.48 124.085 126.483 124.841C126.486 125.76 126.448 126.289 126.413 126.788C126.379 127.277 126.346 127.737 126.356 128.505C126.302 128.477 126.242 128.444 126.175 128.409L126.067 128.351L126.065 128.35C124.998 127.776 122.68 126.529 121.924 127.006C121.845 127.065 121.783 127.144 121.747 127.235C121.709 127.326 121.698 127.426 121.714 127.523C121.73 127.62 121.772 127.711 121.835 127.786C121.898 127.861 121.982 127.917 122.075 127.948C124.567 129.104 125.254 129.436 125.6 129.604C125.801 129.702 125.887 129.744 126.146 129.859C126.007 129.951 125.849 130.048 125.657 130.166C125.234 130.427 124.644 130.789 123.727 131.428C122.6 132.218 123.306 133.585 123.913 133.026C124.644 132.403 125.444 131.866 126.299 131.427C126.331 135.248 126.71 135.589 126.855 135.72C126.893 135.757 126.937 135.786 126.986 135.805C127.035 135.824 127.087 135.833 127.14 135.829C127.193 135.827 127.244 135.814 127.292 135.791C127.339 135.768 127.381 135.734 127.414 135.695C127.545 135.529 127.52 135.325 127.444 134.709C127.435 134.635 127.425 134.556 127.415 134.47C127.454 134.322 127.484 133.497 127.514 132.651C127.548 131.702 127.583 130.725 127.633 130.651C127.691 130.657 127.747 130.675 127.796 130.705C128.764 131.183 129.496 131.552 130.055 131.834C131.471 132.547 131.761 132.693 131.891 132.604C131.925 132.582 131.947 132.543 131.976 132.494L131.993 132.466C132.426 131.709 130.536 130.709 129.381 130.097C129.224 130.014 129.081 129.937 128.958 129.87C130.369 129.111 131.735 128.274 133.052 127.361C133.824 126.704 133.202 126.232 132.862 126.418ZM160.711 156.518C160.73 156.556 160.742 156.598 160.744 156.64C160.765 157.288 155.411 162.667 153.114 164.673C153.387 165.001 155.091 166.548 156.741 168.046L156.742 168.047L156.745 168.05C156.984 168.267 157.222 168.482 157.454 168.693C158.996 170.095 158.966 170.222 158.924 170.398C158.91 170.447 158.885 170.492 158.849 170.527C158.814 170.564 158.77 170.591 158.721 170.607C158.143 170.76 153.523 167.086 152.129 165.681C151.891 166.715 151.516 170.675 151.27 173.273L151.27 173.275C151.145 174.602 151.053 175.572 151.03 175.618C151.012 175.654 150.986 175.685 150.953 175.709C150.921 175.733 150.884 175.75 150.844 175.757C149.696 175.936 150.259 170.836 150.563 168.071L150.564 168.07L150.564 168.064C150.631 167.46 150.685 166.968 150.707 166.667C150.47 166.846 150.061 167.181 149.493 167.648L149.491 167.65L149.109 167.964C148.939 168.103 148.758 168.251 148.565 168.408C147.708 169.108 147.662 169.206 147.539 169.468C147.514 169.522 147.485 169.583 147.445 169.658C146.985 170.536 145.895 169.654 146.399 168.619C146.714 167.972 146.753 167.94 149.603 165.618L150.04 165.262L150.59 164.813L150.62 164.788C150.684 164.736 150.747 164.685 150.799 164.64C150.835 164.609 150.866 164.582 150.892 164.558C150.788 164.474 145.272 159.25 145.236 159.099C145.112 158.635 145.273 158.444 145.426 158.366C146.348 157.899 150.487 162.121 151.198 162.893C151.34 161.285 151.433 160.436 151.548 159.386C151.64 158.551 151.747 157.589 151.902 156.015C152.134 153.666 152.148 153.526 152.645 153.447C153.477 153.317 153.128 156.538 152.712 160.376C152.606 161.35 152.496 162.365 152.4 163.374C152.464 163.31 152.662 163.144 152.971 162.885C154.052 161.981 156.485 159.943 159.255 157.186L159.256 157.185C160.048 156.395 160.288 156.156 160.633 156.421C160.665 156.448 160.693 156.48 160.711 156.518ZM48.0986 131.325C48.3388 131.31 48.5865 131.186 48.9194 131.021C49.9694 130.499 51.8676 129.557 57.0563 130.222C57.5188 130.24 57.8457 130.301 58.1024 130.349C58.6167 130.446 58.8493 130.489 59.3273 130.028C59.9937 129.4 64.5912 123.331 64.6562 123.238C65.0428 122.704 65.6549 122.027 66.2745 121.341C67.6587 119.808 69.0799 118.236 68.1065 118.14C66.2231 117.818 64.299 117.816 62.4152 118.135C60.8807 118.396 59.3813 118.834 57.9468 119.438C54.5612 121.168 51.6618 123.717 49.5122 126.854C48.7785 128.02 48.1431 129.241 47.5308 130.475C47.4827 130.568 47.4606 130.671 47.4664 130.776C47.4722 130.88 47.5058 130.98 47.5638 131.067C47.6218 131.154 47.702 131.224 47.796 131.269C47.8901 131.315 47.9946 131.333 48.0986 131.325ZM67.1585 147.768C67.2534 147.821 67.3306 147.899 67.3801 147.996C67.6755 148.649 66.4516 150.153 60.6983 157.224C56.8014 162.013 50.8259 169.357 41.8372 180.72C41.2468 181.466 40.7791 182.068 40.4043 182.549L40.4037 182.55C39.0485 184.293 38.908 184.474 38.5744 184.268C38.4676 184.199 38.3588 184.058 38.4533 183.744C39.4052 180.632 65.8685 147.703 66.8474 147.704C66.9551 147.694 67.0635 147.716 67.1585 147.768ZM47.6439 180.551C46.6305 181.789 47.6798 182.895 48.4051 181.836C48.8779 180.988 52.2139 179.146 55.9588 179.281C56.4111 179.298 56.5272 179.459 56.3447 179.933C55.8715 181.152 53.3 182.74 52.2548 183.385C52.0233 183.528 51.8666 183.624 51.8242 183.661C51.6356 183.791 51.4822 183.965 51.378 184.168C51.2739 184.372 51.2222 184.598 51.2278 184.828C51.2333 185.056 51.2959 185.28 51.4098 185.479C51.5238 185.677 51.6854 185.844 51.8801 185.964C52.1205 186.141 52.3652 186.312 52.6 186.477C53.4386 187.065 54.1532 187.566 54.1088 187.9C54.0225 188.548 51.6503 189.531 47.3011 191.121C46.5816 191.385 46.6888 192.273 48.3943 192.274C50.2633 192.144 52.0723 191.56 53.664 190.572C58.2175 188.046 55.1919 186.174 53.5942 185.185C53.2633 184.98 52.9936 184.813 52.8652 184.687C52.8962 184.665 52.9882 184.615 53.1271 184.541C54.0875 184.026 57.291 182.307 58.0563 180.18C59.6027 175.881 50.207 177.425 47.6439 180.551ZM31.2145 169.408C32.4535 164.588 36.2042 161.148 38.3368 165.492C39.8234 168.518 38.6637 172.274 37.3656 172.163C37.2768 172.161 37.1899 172.137 37.112 172.095C37.034 172.052 36.967 171.992 36.9166 171.919C36.8508 171.748 36.8225 171.565 36.8339 171.381C36.8452 171.199 36.8958 171.02 36.9823 170.859C37.9287 168.072 36.5609 164.467 35.2901 165.593C33.6054 167.088 32.2753 170.59 32.869 171.944C33.1219 172.523 33.1108 173.381 32.5045 173.57C31.6982 173.823 31.4274 173.192 31.1912 172.637C30.4951 171.021 29.1489 170.821 28.3653 171.483C27.4392 172.439 26.8848 173.695 26.8016 175.024C26.8013 175.507 27.1492 175.803 27.4457 176.056C27.7355 176.303 27.9763 176.508 27.795 176.804C27.7337 176.898 27.6427 176.968 27.5367 177.002C27.4307 177.037 27.3161 177.034 27.2116 176.996C26.6281 176.867 26.1102 176.533 25.7529 176.054C25.3956 175.576 25.2227 174.984 25.2662 174.388C25.2453 173.695 25.3894 173.006 25.6864 172.379C26.361 170.579 27.2474 169.672 28.6505 169.345C29.464 169.171 30.3134 169.326 31.0133 169.775L31.1095 169.819C31.1374 169.68 31.1725 169.543 31.2145 169.408ZM75.0837 155.111C74.5431 153.798 73.6622 154.671 72.3795 155.944C71.8622 156.457 71.2793 157.036 70.6271 157.561C68.4806 159.286 62.0487 165.504 60.0706 167.422C53.3097 173.973 53.4446 174.147 53.6496 174.411C53.6749 174.447 53.7084 174.475 53.7472 174.495C53.7859 174.515 53.829 174.525 53.8725 174.524C55.0546 174.525 74.3792 156.405 75.0616 155.353C75.0846 155.317 75.0987 155.277 75.1025 155.235C75.1064 155.193 75.0999 155.15 75.0837 155.111ZM57.8801 147.19L57.8793 147.191C53.6196 153.261 47.1035 162.546 46.1251 164.327C45.8588 164.819 45.1804 164.685 45.3537 163.965C45.9008 161.718 58.6458 142.814 60.5849 141.273C60.6743 141.171 60.7963 141.102 60.9303 141.078C61.0645 141.055 61.2025 141.078 61.3216 141.144C61.4407 141.21 61.5335 141.315 61.5846 141.44C61.6356 141.567 61.6418 141.707 61.6021 141.837C61.5749 141.924 60.0095 144.155 57.8801 147.19ZM112.759 112.437C110.75 111.618 108.836 110.584 107.05 109.355C103.953 107.101 101.263 104.338 99.0926 101.183C98.7506 100.62 98.4842 100.166 98.2714 99.8037C97.7252 98.8731 97.5319 98.5438 97.3216 98.5326C97.2064 98.5264 97.086 98.6157 96.8998 98.754L96.8632 98.7812C86.4048 105.016 77.0627 112.956 69.2238 122.273C67.6718 124.156 67.6843 124.203 67.997 124.741C72.5205 132.541 83.521 141.147 91.3094 145.563C91.8776 145.89 92.0535 145.887 97.7143 139.019C104.204 131.146 109.537 122.387 113.551 113.007C113.55 112.523 113.366 112.515 113.126 112.505C113.012 112.5 112.885 112.495 112.759 112.437ZM94.77 126.368C91.4274 125.914 89.4995 125.082 87.6023 122.269C82.9463 115.356 90.5582 106.092 98.6371 109.801C106.417 113.372 104.92 125.88 94.77 126.368ZM88.3358 147.092C89.487 147.735 89.7174 147.864 89.3716 148.246L89.2789 148.347C88.3619 149.342 84.7225 153.292 83.3496 153.678C77.7762 152.756 67.1341 143.547 63.5112 138.42C62.3661 137.005 61.4721 135.402 60.8679 133.685L60.8165 133.566L60.7715 133.461C60.5073 132.848 60.4534 132.724 60.607 132.516C62.0281 130.608 65.0587 126.903 65.0828 126.88C65.6317 126.243 65.9544 126.721 66.9117 128.138C68.4015 130.342 71.4283 134.822 79.2359 140.919C84.0985 144.719 86.9168 146.297 88.3358 147.092ZM118.98 92.1982C118.969 91.9798 118.911 91.7663 118.81 91.5723C118.708 91.3783 118.567 91.2085 118.395 91.0744C118.222 90.9402 118.022 90.845 117.809 90.7951C117.596 90.7454 117.375 90.7421 117.16 90.7857C111.723 91.4099 107.749 92.567 100.091 96.5032C99.6717 96.7197 99.6935 96.8778 100.422 97.9693C103.534 102.62 106.579 106.542 113.009 109.344C113.311 109.475 113.573 109.592 113.803 109.692C115.272 110.34 115.379 110.387 115.521 110.131C118.29 105.042 119.346 95.3918 118.98 92.1982ZM90.41 123.318C89.489 122.584 88.7621 121.635 88.2925 120.555C87.7275 119.231 87.5704 117.768 87.8415 116.354C88.1125 114.94 88.7994 113.639 89.814 112.618C90.8286 111.596 92.125 110.901 93.5371 110.62C94.9493 110.339 96.4131 110.487 97.741 111.043C98.8244 111.505 99.778 112.226 100.519 113.142C101.259 114.058 101.764 115.141 101.99 116.297C102.216 117.453 102.155 118.647 101.813 119.773C101.47 120.901 100.858 121.927 100.028 122.763C99.1974 123.598 98.1753 124.218 97.0506 124.568C95.9258 124.918 94.7325 124.986 93.5749 124.769C92.4174 124.551 91.3307 124.053 90.41 123.318ZM100.11 119.303C100.466 118.339 100.548 117.294 100.346 116.287C100.173 115.439 99.8046 114.642 99.2696 113.961C98.7346 113.28 98.0479 112.734 97.2643 112.365C96.4808 111.996 95.622 111.815 94.7564 111.837C93.8906 111.859 93.042 112.082 92.2779 112.49C91.3727 112.977 90.6204 113.705 90.105 114.594C89.5895 115.483 89.331 116.499 89.3585 117.526C89.3859 118.553 89.6983 119.553 90.2605 120.413C90.8227 121.273 91.6128 121.96 92.5427 122.399C93.4726 122.836 94.5058 123.006 95.5271 122.892C96.5483 122.776 97.5176 122.379 98.3267 121.746C99.1359 121.113 99.7532 120.266 100.11 119.303ZM97.6374 144.016C97.1421 143.919 96.4701 144.765 95.4615 146.034C94.835 146.822 94.0786 147.773 93.1539 148.764C93.1225 148.798 93.1309 148.788 93.1414 148.777C93.1882 148.724 93.2745 148.629 90.0241 152.112C89.6538 152.508 89.3637 152.789 89.0877 153.057C88.6257 153.506 88.2027 153.915 87.5095 154.756C87.0029 155.359 87.2421 156.004 87.5485 156.831C87.6908 157.215 87.8476 157.638 87.9509 158.115C88.0976 158.788 88.2014 159.252 88.2749 159.581C88.4095 160.182 88.4426 160.33 88.4518 160.479C88.4548 160.529 88.4552 160.577 88.4559 160.643C88.458 160.869 88.4619 161.29 88.5821 162.578C88.6038 164.151 88.2653 164.972 88.0511 165.492C87.8536 165.97 87.7617 166.193 88.1552 166.513C88.655 166.922 88.7015 166.885 91.5023 164.701L91.5991 164.626C100.154 157.937 99.4536 144.369 97.6374 144.016ZM94.0503 115.522C95.0448 115.014 96.0934 114.621 97.1764 114.349C97.368 114.312 97.4971 114.253 97.5994 114.205C97.8084 114.106 97.9053 114.061 98.194 114.381C98.7861 115.062 99.6677 116.427 98.8111 116.696C95.7429 117.663 95.7436 117.665 96.0084 118.076C96.0829 118.191 96.1782 118.34 96.2321 118.552C96.2756 118.712 96.2714 118.88 96.2202 119.039C96.1689 119.196 96.0728 119.335 95.9435 119.438C95.0437 120.023 94.0776 120.5 93.0654 120.856C92.2591 121.059 91.4018 120.825 90.7498 119.024C90.617 118.659 90.7994 118.617 91.3363 118.494C91.7748 118.393 92.4499 118.24 93.3828 117.81C94.5067 117.295 94.258 116.908 94.0051 116.515C93.8086 116.209 93.6096 115.899 94.0503 115.522Z" fill="#4F5B41" fill-opacity="0.67"/>
<path d="M195.824 26.3757C181.578 6.53879 155.433 2.97985 135.222 14.3027C105.083 31.1862 104.982 80.2922 141.492 95.1577C155.108 100.702 173.865 99.6195 186.364 89.7075C193.167 84.3122 197.777 76.9658 200.476 71.6691C207.1 56.1641 203.811 37.4973 195.824 26.3757ZM202.667 58.7981C202.559 62.8708 199.114 75.6309 189.575 84.7346C165.54 107.67 127.519 96.9064 117.214 67.8726C111.22 50.9837 114.974 26.9102 137.485 14.5881C162.328 0.98937 195.947 13.4729 201.765 43.5085C202.867 48.526 203.172 53.6859 202.667 58.7981Z" fill="#4F5B41" fill-opacity="0.67"/>
<path d="M163.006 66.8989C159.908 65.7805 156.947 68.0021 155.324 70.542C151.937 75.8424 153.095 83.4181 159.439 83.0395C161.28 83.0409 164.862 80.0376 166.003 75.7407C167.119 71.5421 165.446 67.7791 163.006 66.8989ZM165.587 73.5396C165.214 78.0413 161.917 81.6133 159.86 82.0159C158.527 82.2756 161.851 79.6617 162.396 74.1864C163.051 67.5313 158.909 68.4967 159.758 67.7268C160.269 67.4328 160.865 67.3224 161.447 67.4139C163.216 67.032 165.911 69.6399 165.587 73.5396Z" fill="#4F5B41" fill-opacity="0.67"/>
<path d="M136.93 54.8972C134.21 51.8914 129.015 52.2886 126.391 58.9863C123.988 65.1177 129.605 73.751 136.4 66.3067C138.741 63.7433 139.413 57.6463 136.93 54.8972ZM135.107 54.632C134.271 54.9223 133.53 55.4328 132.961 56.1098C131.861 57.3172 131.096 58.7899 130.739 60.383C130.684 60.7756 130.424 61.1156 130.397 61.5208C130.319 62.4766 130.01 64.9546 130.686 66.2324C131 66.8242 131.202 67.5027 131.847 67.8634C132.082 67.9944 132.024 68.2697 131.847 68.2644C131.062 68.3609 130.265 68.239 129.544 67.9119C126.156 65.9014 126.297 60.0845 128.388 57.1849C131.473 52.1721 135.796 54.2033 135.107 54.632Z" fill="#4F5B41" fill-opacity="0.67"/>
<path d="M156.297 29.8207C154.189 28.4832 149.387 28.9896 146.783 29.8954C140.57 32.0539 137.314 36.8173 141.027 39.5045C144.187 41.7923 151.743 39.6945 155.005 37.4721C158.79 34.8919 158.843 31.437 156.297 29.8207ZM141.552 37.2999C141.133 37.9519 141.286 38.3247 140.886 37.8742C140.127 37.0204 140.492 35.7235 141.656 34.3612C145.645 29.6935 153.688 29.1089 155.955 30.6695C156.543 31.0869 156.947 31.715 157.083 32.423C157.219 33.1309 157.076 33.8641 156.685 34.4695C156.519 34.7165 155.763 34.0825 155.375 33.766C152.626 31.5204 143.746 33.8842 141.552 37.2999Z" fill="#4F5B41" fill-opacity="0.67"/>
<path d="M174.972 51.9726C177.575 51.3096 177.763 48.7478 177.958 46.0771C177.687 43.3224 177.461 40.7058 175.17 39.1033C170.677 35.9602 168.546 50.8068 174.972 51.9726ZM173.557 39.6769C174.575 39.2536 175.797 40.4596 176.15 41.3959C178.396 47.3652 176.335 51.3422 174.812 51.115C174.53 51.0718 174.455 50.9671 174.59 50.7149C175.597 48.8311 175.907 44.5062 174.24 41.1987C173.86 40.4467 173.253 40.3688 173.289 39.8673C173.287 39.6788 173.446 39.7229 173.557 39.6769Z" fill="#4F5B41" fill-opacity="0.67"/>
<path d="M131.614 28.9462C131.803 26.9571 130.428 26.063 128.923 26.4619C125.677 27.3222 122.46 32.607 122.785 35.566C123.347 40.6694 130.137 36.7953 131.614 28.9462ZM125.086 35.2096C124.915 35.7464 124.852 36.3118 124.9 36.8732C124.836 37.2458 124.05 36.9772 123.792 36.3332C122.411 32.9138 128.629 25.4607 130.428 27.468C131.699 28.8845 128.904 26.9811 125.549 33.8102C125.392 34.1283 125.214 34.8841 125.086 35.2096Z" fill="#4F5B41" fill-opacity="0.67"/>
<path d="M184.7 65.3108C183.217 67.457 182.638 70.6363 184.646 71.8815C187.064 73.3794 191.131 70.2342 191.44 66.0235C191.723 62.197 187.315 61.5258 184.7 65.3108ZM189.355 69.3555C187.645 71.3833 186.116 71.5916 185.882 71.5097C185.416 71.345 185.495 71.0488 185.778 70.9171C186.692 70.3209 187.435 69.4973 187.935 68.5274C190.171 64.8426 188.161 63.6905 189.21 63.6525C190.617 63.6023 191.315 67.041 189.355 69.3555Z" fill="#4F5B41" fill-opacity="0.67"/>
<path d="M195.73 42.7325C193.653 43.1498 191.28 47.5778 192.561 51.3342C194.267 56.3389 199.243 52.585 198.959 47.1102C198.775 43.4896 197.011 42.4738 195.73 42.7325ZM194.646 52.8046C193.557 52.4186 194.872 51.8165 195.223 50.5017C195.265 50.3447 196.664 46.6803 195.247 44.6387C194.809 44.0102 194.78 44.0468 195.248 43.7519C195.494 43.6379 195.762 43.5803 196.033 43.5833C196.303 43.5863 196.57 43.6499 196.814 43.7693C197.057 43.8887 197.27 44.061 197.438 44.2734C197.606 44.486 197.724 44.7334 197.785 44.9976C199.116 50.1779 196.246 53.3649 194.646 52.8046Z" fill="#4F5B41" fill-opacity="0.67"/>
<path d="M173.4 18.9907C170.589 20.7685 178.622 27.52 181.678 25.3048C183.108 24.2683 181.283 21.9636 179.599 20.6348C178.131 19.4758 175.106 17.9115 173.4 18.9907ZM180.895 24.7849C180.476 25.0254 180.284 25.0849 179.545 24.0594C178.135 22.4921 176.365 21.2905 174.388 20.5577C174.022 20.4695 173.531 20.6031 173.655 20.1133C173.819 19.4632 174.145 19.5315 174.825 19.5152C177.859 19.4431 182.604 23.8156 180.895 24.7849Z" fill="#4F5B41" fill-opacity="0.67"/>
<path d="M171.348 85.2574C171.173 85.5312 171.073 85.8453 171.054 86.1696C171.036 86.4938 171.1 86.8175 171.242 87.1094C172.061 88.3161 174.476 88.4047 176.322 88.1224C177.635 87.9223 177.892 87.6116 178.175 86.9134C179.593 83.4752 173.208 83.0894 171.348 85.2574ZM177.468 85.7434C177.291 87.8886 176.561 85.0622 172.916 86.2102C172.694 86.2802 172.319 86.5396 172.078 86.5896C171.294 86.7493 172.08 83.9722 176.276 84.8202C176.621 84.8906 177.532 85.3948 177.468 85.7434Z" fill="#4F5B41" fill-opacity="0.67"/>
<path d="M136.558 80.7028C135.521 82.2233 139.085 87.0807 141.655 86.6827C145.642 86.0626 138.854 77.3353 136.558 80.7028ZM140.712 85.4685C140.549 85.1408 140.365 84.8242 140.16 84.5206C139.672 83.6996 139.053 82.9648 138.327 82.3458C137.779 81.8156 137.268 81.9723 137.301 81.3441C137.318 81.007 137.378 80.9348 137.733 80.9256C139.7 80.8632 141.202 83.0912 142.043 85.0853C142.367 85.8508 141.018 86.3399 140.712 85.4685Z" fill="#4F5B41" fill-opacity="0.67"/>
<path d="M156.747 16.6491C163.894 17.1674 160.791 9.64571 154.63 13.3894C152.849 14.4717 152.949 16.3742 156.747 16.6491ZM159.831 13.8246C160.217 14.1641 160.006 14.5461 159.679 14.8714C159.077 15.4709 159.293 14.8439 158.14 14.7373C155.432 14.4862 155.932 15.8225 155.238 15.5728C152.127 14.4545 157.992 12.2004 159.831 13.8214L159.831 13.8246Z" fill="#4F5B41" fill-opacity="0.67"/>
<path d="M157.839 50.1949C155.751 51.1577 155.699 51.902 155.37 53.0126C155.188 53.6292 155.589 54.1235 156.003 54.5657C156.286 54.8663 156.725 54.874 157.304 54.9749C157.918 54.9907 158.529 54.8697 159.091 54.6208C159.653 54.3719 160.154 54.0012 160.555 53.5356C161.315 52.9352 161.803 51.4301 161.223 50.7429C160.802 50.2867 160.239 49.9851 159.625 49.8857C159.012 49.7864 158.384 49.8953 157.839 50.1949ZM160.509 51.5988C160.508 52.9096 159.432 51.5749 157.837 52.7212C156.952 53.3581 156.831 53.9769 156.554 53.8291C156.03 53.5586 156.032 52.0079 157.838 51.0691C159.461 50.2253 160.686 50.8619 160.509 51.5988Z" fill="#4F5B41" fill-opacity="0.67"/>
</svg>
