<svg xmlns="http://www.w3.org/2000/svg" version="1.1" xmlns:xlink="http://www.w3.org/1999/xlink" xmlns:svgjs="http://svgjs.dev/svgjs" viewBox="0 0 800 800"><defs><filter id="uuunion-blur" x="-100%" y="-100%" width="400%" height="400%" color-interpolation-filters="sRGB">
        <feGaussianBlur in="SourceGraphic" stdDeviation="7.5 0" result="blur"></feGaussianBlur>
        <feDropShadow stdDeviation="12.307692307692308" in="blur" dx="10" dy="10" flood-color="hsl(316, 73%, 52%)" flood-opacity="0.25" x="0%" y="0%" width="100%" height="100%"></feDropShadow>
      </filter><filter id="uuunion-blur2" x="-100%" y="-100%" width="400%" height="400%" color-interpolation-filters="sRGB">
        <feGaussianBlur in="SourceGraphic" stdDeviation="7.5 0" result="blur"></feGaussianBlur>
        <feDropShadow stdDeviation="12.307692307692308" in="blur" dx="-10" dy="-10" flood-color="hsl(316, 73%, 52%)" flood-opacity="0.25" x="0%" y="0%" width="100%" height="100%"></feDropShadow>
      </filter><linearGradient gradientTransform="rotate(0, 0.5, 0.5)" x1="50%" y1="0%" x2="50%" y2="100%" id="uuunion-grad"><stop stop-color="hsl(37, 99%, 67%)" offset="10%"></stop><stop stop-color="hsl(316, 73%, 52%)" offset="90%"></stop></linearGradient><linearGradient gradientTransform="rotate(135, 0.5, 0.5)" x1="50%" y1="0%" x2="50%" y2="100%" id="uuunion-grad2"><stop stop-color="hsl(37, 99%, 67%)" offset="25%"></stop><stop stop-color="hsl(316, 73%, 52%)" offset="100%"></stop></linearGradient><linearGradient gradientTransform="rotate(333, 0.5, 0.5)" x1="50%" y1="0%" x2="50%" y2="100%" id="uuunion-grad3"><stop stop-color="hsl(37, 99%, 67%)" offset="0%"></stop><stop stop-color="hsl(316, 73%, 52%)" offset="75%"></stop></linearGradient></defs><path d="M-78.97 -79.21Q-64.34 -76.84 -49.7 -74.71 -35.07 -72.98 -20.44 -71.79 -5.8 -71.23 8.82 -71.35 23.46 -72.12 38.09 -73.5 52.73 -75.38 67.36 -77.61 81.99 -80.02 96.63 -82.44 111.26 -84.66 125.9 -86.53 140.53 -87.89 155.17 -88.65 169.8 -88.75 184.44 -88.18 199.07 -86.98 213.7 -85.24 228.34 -83.1 242.97 -80.72 257.61 -78.29 272.24 -75.99 286.88 -73.99 301.51 -72.46 316.15 -71.5 330.78 -71.2 345.41 -71.56 360.05 -72.58 374.68 -74.16 389.32 -76.19 403.95 -78.52 418.59 -80.95 433.22 -83.31 447.85 -85.42 462.49 -87.11 477.12 -88.26 491.76 -88.77 506.39 -88.61 521.03 -87.79 535.66 -86.37 550.3 -84.46 564.93 -82.21 579.56 -79.79 594.2 -77.39 608.83 -75.18 623.47 -73.35 638.1 -72.02 652.74 -71.31 667.37 -71.26 682.01 -71.88 696.64 -73.12 711.27 -74.89 725.91 -77.05 740.54 -79.44 755.18 -81.87 769.81 -84.16 784.45 -86.12 799.08 -87.62 813.71 -88.53 828.35 -88.79 842.98 -88.37 857.62 -87.32 855.9 -72.5 857.37 -57.69 861.83 -42.88 868.7 -28.06 877.06 -13.25 885.81 1.55 893.8 16.36 899.95 31.18 903.46 45.99 903.87 60.8 901.12 75.62 895.57 90.43 887.96 105.24 879.29 120.05 870.72 134.87 863.38 149.68 858.23 164.49 855.97 179.31 856.88 194.12 860.86 208.93 867.37 223.74 875.55 238.56 884.32 253.37 892.51 268.18 899.05 283 903.07 297.81 904.03 312.62 901.81 327.43 896.71 342.25 889.39 357.06 880.83 371.87 872.16 386.69 864.52 401.5 858.94 416.31 856.14 431.12 856.5 445.94 859.97 460.75 866.09 475.56 874.05 490.37 882.8 505.19 891.18 520 898.07 534.81 902.58 549.63 904.09 564.44 902.42 579.25 897.78 594.06 890.78 608.88 882.36 623.69 873.62 638.5 865.73 653.32 859.72 668.13 856.4 682.94 856.2 697.75 859.15 712.57 864.86 727.38 872.57 742.19 881.27 757.01 889.79 771.82 897.02 786.63 902 801.44 904.06 816.26 902.94 831.07 898.78 845.88 892.13 860.7 876.93 857.9 861.73 856.81 846.54 857.49 831.34 859.89 816.14 863.84 800.94 869.03 785.74 875.05 770.54 881.46 755.35 887.75 740.15 893.45 724.95 898.12 709.75 901.39 694.55 903.03 679.36 902.9 664.16 901.02 648.96 897.52 633.76 892.68 618.56 886.87 603.36 880.53 588.17 874.15 572.97 868.21 557.77 863.19 542.57 859.44 527.37 857.28 512.17 856.86 496.98 858.21 481.78 861.23 466.58 865.69 451.38 871.24 436.18 877.47 420.98 883.89 405.79 890.01 390.59 895.37 375.39 899.54 360.19 902.22 344.99 903.19 329.79 902.39 314.6 899.86 299.4 895.82 284.2 890.56 269 884.49 253.8 878.08 238.61 871.81 223.41 866.17 208.21 861.59 193.01 858.42 177.81 856.91 162.61 857.16 147.42 859.17 132.22 862.77 117.02 867.69 101.82 873.56 86.62 879.92 71.42 886.28 56.23 892.17 41.03 897.12 25.83 900.75 10.63 902.8 -4.56 903.1 -19.76 901.62 -34.95 898.49 -50.15 893.94 -65.35 888.32 -80.55 882.06 -80.85 867.04 -81.04 852.02 -81.09 837 -81 821.98 -80.77 806.96 -80.44 791.94 -80.05 776.92 -79.66 761.9 -79.3 746.88 -79.04 731.86 -78.91 716.84 -78.92 701.82 -79.07 686.8 -79.34 671.78 -79.7 656.76 -80.1 641.74 -80.49 626.72 -80.81 611.7 -81.02 596.68 -81.09 581.66 -81.03 566.64 -80.82 551.62 -80.51 536.6 -80.12 521.58 -79.72 506.56 -79.36 491.54 -79.08 476.52 -78.92 461.5 -78.91 446.48 -79.03 431.46 -79.29 416.44 -79.64 401.42 -80.03 386.4 -80.42 371.38 -80.76 356.36 -80.99 341.34 -81.09 326.32 -81.05 311.3 -80.86 296.28 -80.57 281.26 -80.19 266.24 -79.79 251.22 -79.42 236.2 -79.12 221.18 -78.94 206.16 -78.9 191.14 -79 176.12 -79.24 161.1 -79.57 146.08 -79.96 131.06 -80.36 116.04 -80.71 101.02 -80.96 86 -81.08 70.98 -81.07 55.96 -80.91 40.94 -80.62 25.92 -80.26 10.9 -79.86 -4.11 -79.48 -19.13 -79.17 -34.15 -78.96 -49.17 -78.9 -64.19 -78.97 -79.21" fill="url(#uuunion-grad)"></path><path d="M-78.97 -79.21Q-78.9 -64.19 -78.96 -49.17 -79.17 -34.15 -79.48 -19.13 -79.86 -4.11 -80.26 10.9 -80.62 25.92 -80.91 40.94 -81.07 55.96 -81.08 70.98 -80.96 86 -80.71 101.02 -80.36 116.04 -79.96 131.06 -79.57 146.08 -79.24 161.1 -79 176.12 -78.9 191.14 -78.94 206.16 -79.12 221.18 -79.42 236.2 -79.79 251.22 -80.19 266.24 -80.57 281.26 -80.86 296.28 -81.05 311.3 -81.09 326.32 -80.99 341.34 -80.76 356.36 -80.42 371.38 -80.03 386.4 -79.64 401.42 -69.72 404.33 -59.81 407.09 -49.89 409.61 -39.98 411.8 -30.06 413.59 -20.15 414.91 -1.56 415.92 1.64 415.98 14.21 409.08 26.88 401.38 39.65 392.96 52.51 383.95 65.45 374.5 78.46 364.78 91.51 354.98 104.58 345.3 117.65 335.9 130.69 326.95 143.68 318.6 156.58 310.94 169.37 304.04 182.03 297.93 194.54 292.58 206.89 287.94 219.06 283.92 231.05 280.39 242.86 277.2 254.49 274.18 265.96 271.17 277.28 267.98 288.48 264.46 299.59 260.47 310.64 255.9 321.67 250.66 332.71 244.71 343.82 238.05 355.02 230.7 366.36 222.74 377.88 214.26 389.62 205.39 401.6 196.27 413.86 187.06 426.41 177.92 439.27 168.99 452.44 160.42 465.92 152.33 479.7 144.79 493.75 137.89 508.05 131.63 522.56 126.01 537.24 120.99 552.05 116.49 566.92 112.41 581.79 108.63 596.61 105.02 611.32 101.43 625.86 97.72 640.15 93.76 654.17 89.43 667.84 84.64 681.13 79.31 694.01 73.41 706.45 66.93 718.44 59.89 729.97 52.34 741.06 44.36 751.71 36.05 761.97 27.52 771.87 18.9 781.46 10.31 790.82 1.88 800 -6.26 790.89 -23.6 783.41 -40.94 778.92 -58.27 778.2 -75.61 781.39 -92.94 787.93 -110.28 793.77 -135.35 775.9 -140.98 760.89 -138.81 745.88 -136.73 730.87 -134.89 715.86 -133.44 700.85 -132.49 685.83 -132.1 670.82 -132.31 655.81 -133.11 640.8 -134.42 625.79 -136.16 610.77 -138.19 595.76 -140.35 580.75 -142.49 565.74 -144.44 550.73 -146.05 535.72 -147.2 520.7 -147.81 505.69 -147.83 490.68 -147.25 475.67 -146.12 460.66 -144.53 445.65 -142.6 430.63 -140.47 415.62 -138.3 400.61 -136.26 385.6 -134.5 370.59 -133.16 355.57 -132.34 340.56 -132.1 325.55 -132.45 310.54 -133.38 295.53 -134.8 280.52 -136.62 265.5 -138.7 250.49 -140.87 235.48 -142.98 220.47 -144.86 205.46 -146.37 190.45 -147.4 175.43 -147.87 160.42 -147.74 145.41 -147.03 130.4 -145.78 115.39 -144.1 100.37 -142.1 85.36 -139.95 70.35 -137.8 55.34 -135.81 40.33 -134.14 25.32 -132.92 10.3 -132.23 -4.7 -132.13 -19.71 -132.62 -34.72 -133.68 -49.73 -135.21 -64.74 -137.1 -79.76 -139.21 -94.77 -141.39 -109.78 -143.45 -124.79 -145.26 -134.01 -133.19 -116.08 -114.68 -106.65 -105.98 -97.33 -97.14 -88.11 -88.21 -78.97 -79.21" fill="url(#uuunion-grad2)" filter="url(#uuunion-blur)"></path><path d="M792.84 389.96Q802.75 387.84 812.67 386.13 822.58 384.9 832.5 384.18 842.41 384 852.33 384.37 863.38 393.39 858.94 416.31 856.14 431.12 856.5 445.94 859.97 460.75 866.09 475.56 874.05 490.37 882.8 505.19 891.18 520 898.07 534.81 902.58 549.63 904.09 564.44 902.42 579.25 897.78 594.06 890.78 608.88 882.36 623.69 873.62 638.5 865.73 653.32 859.72 668.13 856.4 682.94 856.2 697.75 859.15 712.57 864.86 727.38 872.57 742.19 881.27 757.01 889.79 771.82 897.02 786.63 902 801.44 904.06 816.26 902.94 831.07 898.78 845.88 892.13 860.7 878.18 858.07 864.24 856.87 850.29 857.16 836.34 858.92 822.39 862.05 808.45 866.33 794.5 871.5 780.55 877.22 766.6 883.12 752.66 888.82 738.71 893.94 724.76 898.17 710.81 901.22 696.86 902.89 682.92 903.09 668.97 901.8 655.02 899.09 641.07 895.16 627.13 890.24 613.18 884.66 599.23 878.78 585.28 872.97 571.34 867.62 557.39 863.07 543.44 859.62 529.49 857.48 515.55 856.8 501.6 857.61 487.65 859.87 473.7 863.44 459.76 868.07 445.81 873.47 431.86 879.3 417.91 885.17 403.97 890.71 390.02 895.55 376.07 899.39 362.12 901.97 348.18 903.14 334.23 902.8 320.28 901 306.33 897.84 292.38 893.52 278.44 888.33 264.49 882.6 250.54 876.7 236.59 871.02 222.65 865.91 208.7 861.72 194.75 858.71 180.8 857.07 166.86 856.91 152.91 858.25 138.96 860.99 125.01 864.96 111.07 869.9 97.12 875.5 83.17 881.38 69.22 887.18 55.28 892.51 41.33 897.03 27.38 900.45 6.55 897.8 -0.17 882.89 -0.07 872.74 -0.02 862.59 -0.04 852.44 -0.11 842.29 -0.06 827.07 0.61 822 13.14 815.07 25.57 807.01 37.9 797.93 50.12 787.99 62.23 777.39 74.25 766.37 86.2 755.19 98.08 744.1 109.92 733.37 121.75 723.23 133.58 713.88 145.46 705.49 157.4 698.15 169.43 691.91 181.58 686.77 193.88 682.65 206.33 679.43 218.97 676.95 231.79 675 244.81 673.33 258.02 671.71 271.42 669.89 284.98 667.64 298.71 664.74 312.56 661.03 326.51 656.38 340.52 650.7 354.55 643.99 368.57 636.27 382.54 627.64 396.39 618.22 410.1 608.2 423.63 597.78 436.93 587.19 449.97 576.65 462.73 566.41 475.18 556.65 487.31 547.58 499.11 539.33 510.59 531.99 521.76 525.63 532.64 520.23 543.25 515.73 553.64 512.04 563.85 509.02 573.93 506.47 583.93 504.21 593.92 502.01 603.95 499.66 614.1 496.96 624.43 493.72 634.98 489.78 645.84 485.03 657.03 479.4 668.62 472.86 680.62 465.44 693.08 457.22 706.01 448.31 719.41 438.85 733.28 429.02 747.59 419.02 762.31 409.05 777.42 399.3 792.84 389.96 792.84 389.96 792.84 389.96" fill="url(#uuunion-grad3)" filter="url(#uuunion-blur2)"></path></svg>